<svg xmlns="http://www.w3.org/2000/svg" viewBox="0 0 430 430">
  <path fill="#8e8e8e" d="M324.05,126.03c-68.77,69.49-137.96,137.03-208.8,203.71l-54.98,49.16-35.92,29.17-11.42,6.97c-.45.28-1.93.28-2.35.26-.55-.03-.55-2-.12-2.54l9.55-11.97c15.42-17.74,30.62-34.93,44.42-53.93,14.75-20.31,21.42-48.42,11.55-72.04-13.25-31.72-15.84-66.35-7.11-98.79,24.54-91.18,124.69-137.57,210.32-98.19,11.11,5.11,24.62,5.31,37.03,3.05,13.04-2.38,24.51-7.67,35.57-14.6,19.54-12.24,37.16-26.3,54.4-41.76l11.38-9.53c.33-.28,1.99-.49,2.1-.11s.31,1.77.08,2.16l-6.02,9.83-27.82,33.17-61.85,65.96ZM273.56,138.22c-38.67-29.32-92.45-25.49-126.43,8.12-33.71,33.34-38.38,86.87-10.06,125.64l136.49-133.76ZM141.75,267.32l62.72-62.24,64.48-62.15"/>
  <path fill="#8e8e8e" d="M162.11,295.78c38.33,24.76,88.43,19.92,120.87-12.21,31.36-31.06,38.1-80.68,14.1-119.47l39.08-39.62c45.31,60.63,38.39,144.66-13.82,197.1-53.78,54.01-139.79,60.01-200.66,12.43l40.43-38.23Z"/>
</svg>
